# xmcd
#
# Track frame offsets:
#	150
#	13995
#	34899
#	50600
#	66093
#	76890
#	96187
#	115020
#	127606
#	146250
#	157088
#	166688
#	184566
#	197730
#	214868
#	234789
#	248337
#	270254
#
# Disc length: 3746 seconds
#
# Revision: 0
# Processed by: cddbd v1.5.1PL0 Copyright (c) Steve Scherf et al.
# Submitted via: audiograbber 1.82.02
#
DISCID=de0ea012
DTITLE=Various Artist - Oasis Blues Volume 3 - Disc 2
DYEAR=1900
DGENRE=Blues
TTITLE0=Michael O'Connor - That Ain't Right
TTITLE1=Billy Ebeling - People Please
TTITLE2=Lorna Willhelm - Good Girl Feelin' Blue
TTITLE3=Krewe Of Renegades - Bitter and Blue
TTITLE4=Third Stone - Hold On
TTITLE5=Delta Souls - He's Gone
TTITLE6=Blue Steele - Who Was That Man?
TTITLE7=Roll and Tumble - All The Little Things You Do
TTITLE8=Lunchboxx - The Losing End
TTITLE9=Kris Brown - A Song Of Praise
TTITLE10=The NexTradition - Another Man Done Gone
TTITLE11=Skitch Rudy - Rollin' In It
TTITLE12=Bounty Hunter - Hot Little Mama
TTITLE13=The Filthy Rich - Azar's Car Wash
TTITLE14=Lil Higgy and The House Reckers - Workin' Man
TTITLE15=Luce Myers - King Of Swing
TTITLE16=ToneStack - When Your World Has Died
TTITLE17=The Contenders - Don't Do Me Wrong
EXTD=
EXTT0=
EXTT1=
EXTT2=
EXTT3=
EXTT4=
EXTT5=
EXTT6=
EXTT7=
EXTT8=
EXTT9=
EXTT10=
EXTT11=
EXTT12=
EXTT13=
EXTT14=
EXTT15=
EXTT16=
EXTT17=
PLAYORDER=
